# xmcd
#
# Track frame offsets: 
#        150
#        13409
#        26401
#        41339
#        58365
#        70834
#        85801
#        101335
#        115158
#        128953
#        141299
#        158773
#
# Disc length: 2258 seconds
#
# Revision: 0
# Processed by: cddbd v1.5.2PL0 Copyright (c) Steve Scherf et al.
# Submitted via: ExactAudioCopy v1.3
#
DISCID=a008d00c
DTITLE=MadMan - Back Home
DYEAR=2018
DGENRE=Rap
TTITLE0=Niente proprio
TTITLE1=Trapano
TTITLE2=Successo
TTITLE3=Salsa
TTITLE4=Ciò che fa per me
TTITLE5=Hollywood feat. Gemitaiz
TTITLE6=Extraterrestri feat. Priestess
TTITLE7=Centro feat. Coez
TTITLE8=Niente da dividere
TTITLE9=Storie
TTITLE10=Mickey Rourke
TTITLE11=Grande
EXTD=
EXTT0=
EXTT1=
EXTT2=
EXTT3=
EXTT4=
EXTT5=
EXTT6=
EXTT7=
EXTT8=
EXTT9=
EXTT10=
EXTT11=
PLAYORDER=
